<svg xmlns="http://www.w3.org/2000/svg" id="Layer_2" data-name="Layer 2" viewBox="0 0 1141.56 297.85"><defs><style>.cls-1{fill:#fff}</style></defs><g id="Layer_2-2" data-name="Layer 2"><path d="M345.5 44.09c5.55-.91 13.82-1.59 23-1.59 11.33 0 19.26 1.7 24.7 6 4.53 3.63 7.02 8.95 7.02 15.98 0 9.74-6.91 16.43-13.48 18.81v.34c5.33 2.15 8.27 7.25 10.2 14.28 2.38 8.61 4.76 18.58 6.23 21.53H385.5c-1.25-2.15-3.06-8.38-5.32-17.79-2.04-9.52-5.33-12.12-12.35-12.24h-5.21v30.02h-17.11V44.09Zm17.11 32.86h6.8c8.61 0 13.71-4.31 13.71-10.99 0-7.02-4.76-10.54-12.69-10.65-4.19 0-6.57.34-7.82.57zm119.53 4.19c0 25.61-16.88 39.54-37.39 39.54-21.98 0-36.03-15.98-36.03-38.86s15.07-39.99 37.5-39.99 35.92 16.99 35.92 39.31m-55.18.23c0 14.28 6.57 25.61 18.47 25.61S463.9 95.2 463.9 81.37c0-12.92-5.67-25.83-18.35-25.83s-18.58 11.67-18.58 25.83Zm66.51-37.28c4.53-.91 13.71-1.59 22.32-1.59 10.54 0 17 1.02 22.55 4.3 5.33 2.83 9.18 8.04 9.18 14.96s-3.97 13.14-12.58 16.32v.23c8.72 2.38 15.18 8.95 15.18 18.81 0 6.91-3.17 12.35-7.93 16.2-5.55 4.42-14.84 6.91-30.02 6.91-8.5 0-14.84-.57-18.69-1.13V44.09Zm17.11 29.23h5.66c9.06 0 13.94-3.74 13.94-9.4s-4.42-8.84-12.24-8.84c-3.74 0-5.89.23-7.36.45zm0 33.88c1.7.23 3.74.23 6.68.23 7.82 0 14.73-3.06 14.73-10.99s-6.91-10.76-15.52-10.76h-5.89v21.53Zm121.23-26.06c0 25.61-16.88 39.54-37.39 39.54-21.98 0-36.03-15.98-36.03-38.86s15.07-39.99 37.5-39.99 35.92 16.99 35.92 39.31m-55.18.23c0 14.28 6.57 25.61 18.47 25.61s18.47-11.78 18.47-25.61c0-12.92-5.67-25.83-18.35-25.83s-18.58 11.67-18.58 25.83Zm78.07-23.79h-20.51v-14.5h58.69v14.5h-20.85v61.86H654.7zm64.69-14.51v76.36h-17.33V43.07zm71.04 74.21c-3.17 1.59-10.31 3.4-19.6 3.4-26.4 0-40-16.54-40-38.3 0-26.06 18.58-40.45 41.69-40.45 8.95 0 15.75 1.7 18.81 3.29l-3.51 13.71c-3.51-1.47-8.38-2.83-14.5-2.83-13.71 0-24.36 8.27-24.36 25.27 0 15.3 9.06 24.93 24.47 24.93 5.21 0 10.99-1.13 14.39-2.49l2.61 13.48Zm11.9-15.63c4.65 2.38 11.78 4.76 19.15 4.76 7.93 0 12.12-3.29 12.12-8.27s-3.63-7.48-12.8-10.76c-12.69-4.42-20.96-11.44-20.96-22.55 0-13.03 10.88-22.89 28.89-22.89 8.61 0 14.95 1.7 19.49 3.74l-3.85 13.94c-3.06-1.47-8.5-3.63-15.98-3.63s-11.1 3.4-11.1 7.36c0 4.87 4.31 7.02 14.16 10.76 13.48 4.99 19.83 12.01 19.83 22.77 0 12.8-9.86 23.79-30.82 23.79-8.72 0-17.34-2.38-21.64-4.76l3.51-14.28Zm139.59 15.63c-3.17 1.59-10.31 3.4-19.6 3.4-26.4 0-40-16.54-40-38.3 0-26.06 18.58-40.45 41.69-40.45 8.95 0 15.75 1.7 18.81 3.29l-3.51 13.71c-3.51-1.47-8.38-2.83-14.5-2.83-13.71 0-24.36 8.27-24.36 25.27 0 15.3 9.06 24.93 24.47 24.93 5.21 0 10.99-1.13 14.39-2.49l2.61 13.48Zm11.33-74.21h17.33v61.86h30.36v14.5h-47.7V43.07Zm71.6 0v44.19c0 13.03 4.98 19.6 13.82 19.6s14.05-6.23 14.05-19.6V43.07h17.22v43.05c0 23.57-11.9 34.56-31.84 34.56s-30.59-10.42-30.59-34.78V43.07h17.33Zm60.06 1.02c4.53-.91 13.71-1.59 22.32-1.59 10.54 0 17 1.02 22.55 4.3 5.33 2.83 9.18 8.04 9.18 14.96s-3.97 13.14-12.58 16.32v.23c8.72 2.38 15.18 8.95 15.18 18.81 0 6.91-3.17 12.35-7.93 16.2-5.55 4.42-14.84 6.91-30.02 6.91-8.5 0-14.84-.57-18.69-1.13V44.09Zm17.11 29.23h5.67c9.06 0 13.94-3.74 13.94-9.4s-4.42-8.84-12.24-8.84c-3.74 0-5.89.23-7.36.45v17.79Zm0 33.88c1.7.23 3.74.23 6.69.23 7.82 0 14.73-3.06 14.73-10.99s-6.91-10.76-15.52-10.76h-5.89v21.53Zm-752.9 49.28h-10.26v-7.25h29.35v7.25h-10.43v30.94h-8.67v-30.94Zm23.68-6.74c2.78-.45 6.91-.79 11.5-.79 5.67 0 9.63.85 12.35 3 2.27 1.81 3.51 4.48 3.51 7.99 0 4.87-3.46 8.22-6.74 9.41v.17c2.66 1.08 4.14 3.63 5.1 7.14 1.19 4.31 2.38 9.29 3.12 10.76h-8.84c-.62-1.08-1.53-4.19-2.66-8.9-1.02-4.76-2.66-6.06-6.18-6.12h-2.61v15.01h-8.56v-37.68Zm8.56 16.43h3.4c4.31 0 6.86-2.15 6.86-5.5 0-3.51-2.38-5.27-6.35-5.33-2.1 0-3.29.17-3.91.28v10.54Zm33.7-16.94v38.19h-8.67v-38.19zm7.48.51c2.27-.45 6.86-.79 11.16-.79 5.27 0 8.5.51 11.28 2.15 2.66 1.42 4.59 4.02 4.59 7.48s-1.98 6.57-6.29 8.16v.11c4.36 1.19 7.59 4.48 7.59 9.4 0 3.46-1.59 6.18-3.97 8.1-2.78 2.21-7.42 3.46-15.01 3.46-4.25 0-7.42-.28-9.35-.57v-37.51Zm8.56 14.62h2.83c4.53 0 6.97-1.87 6.97-4.7s-2.21-4.42-6.12-4.42c-1.87 0-2.95.11-3.68.23v8.9Zm0 16.94c.85.11 1.87.11 3.34.11 3.91 0 7.37-1.53 7.37-5.5s-3.46-5.38-7.76-5.38h-2.95v10.76Zm34.33-32.07v14.67h14.22v-14.67h8.61v38.19h-8.61v-15.98h-14.22v15.98h-8.67v-38.19zm38.97 0v22.1c0 6.52 2.49 9.8 6.91 9.8s7.03-3.12 7.03-9.8v-22.1h8.61v21.53c0 11.78-5.95 17.28-15.92 17.28s-15.3-5.21-15.3-17.39v-21.42zm71.55 28.42-2.72 9.8h-8.95l11.67-38.19h11.33l11.84 38.19h-9.29l-2.95-9.8zm9.69-6.46-2.38-8.1c-.68-2.27-1.36-5.1-1.93-7.36h-.11c-.57 2.27-1.13 5.16-1.76 7.36l-2.27 8.1h8.44Zm18.58 16.26v-38.19h10.09l7.93 13.99c2.27 4.02 4.53 8.78 6.23 13.09h.17c-.57-5.04-.74-10.2-.74-15.98v-11.11h7.93v38.19h-9.07l-8.16-14.73c-2.27-4.08-4.76-9.01-6.63-13.48l-.17.06c.23 5.04.34 10.42.34 16.66v11.5h-7.93Zm59.15-38.19v22.1c0 6.52 2.49 9.8 6.91 9.8s7.03-3.12 7.03-9.8v-22.1h8.61v21.53c0 11.78-5.95 17.28-15.92 17.28s-15.3-5.21-15.3-17.39v-21.42zm30.02 38.19v-38.19h10.09l7.93 13.99c2.27 4.02 4.53 8.78 6.23 13.09h.17c-.57-5.04-.74-10.2-.74-15.98v-11.11H725v38.19h-9.07l-8.16-14.73c-2.27-4.08-4.76-9.01-6.63-13.48l-.17.06c.23 5.04.34 10.42.34 16.66v11.5h-7.93Zm47.76-38.19v38.19h-8.67v-38.19zm16.48 38.19-12.24-38.19h9.46l4.65 16.15c1.3 4.53 2.49 8.9 3.4 13.65h.17c.96-4.59 2.15-9.12 3.46-13.48l4.87-16.32h9.18l-12.86 38.19zm49.74-16.15h-14.05v9.07h15.69v7.08h-24.36v-38.19h23.57v7.08h-14.9v7.93h14.05zm7.54-21.53c2.78-.45 6.91-.79 11.5-.79 5.67 0 9.63.85 12.35 3 2.27 1.81 3.51 4.48 3.51 7.99 0 4.87-3.46 8.22-6.74 9.41v.17c2.66 1.08 4.14 3.63 5.1 7.14 1.19 4.31 2.38 9.29 3.12 10.76h-8.84c-.62-1.08-1.53-4.19-2.66-8.9-1.02-4.76-2.66-6.06-6.18-6.12h-2.61v15.01h-8.56v-37.68Zm8.56 16.43h3.4c4.31 0 6.86-2.15 6.86-5.5 0-3.51-2.38-5.27-6.34-5.33-2.1 0-3.29.17-3.91.28v10.54Zm25.31 12.35c2.32 1.19 5.89 2.38 9.58 2.38 3.97 0 6.06-1.64 6.06-4.14s-1.81-3.74-6.4-5.38c-6.35-2.21-10.48-5.72-10.48-11.28 0-6.52 5.44-11.44 14.45-11.44 4.31 0 7.48.85 9.75 1.87l-1.93 6.97c-1.53-.74-4.25-1.81-7.99-1.81s-5.55 1.7-5.55 3.68c0 2.44 2.15 3.51 7.08 5.38 6.74 2.49 9.91 6.01 9.91 11.39 0 6.4-4.93 11.9-15.41 11.9-4.36 0-8.67-1.19-10.82-2.38l1.76-7.14Zm38.98-29.29v38.19h-8.67v-38.19zm14.84 7.25h-10.26v-7.25h29.35v7.25h-10.42v30.94h-8.67zm32.92 30.94v-15.64l-12.07-22.55h9.86l3.91 9.18c1.19 2.78 1.98 4.82 2.95 7.31h.11c.85-2.38 1.76-4.59 2.89-7.31l3.85-9.18h9.69l-12.58 22.27v15.92zm-593.76 30.27c2.66-.45 6.52-.79 11.67-.79s9.12 1.02 11.67 3.06c2.44 1.93 4.08 5.1 4.08 8.84s-1.25 6.97-3.51 9.06c-2.95 2.78-7.31 4.08-12.35 4.08-1.19 0-2.21-.11-3-.17v13.6h-8.56zm8.56 17.4c.62.11 1.64.17 2.89.17 4.59 0 7.42-2.32 7.42-6.18 0-3.57-2.38-5.67-6.86-5.67-1.7 0-2.83.17-3.46.28v11.39Zm32.96-17.9v22.1c0 6.52 2.49 9.8 6.91 9.8s7.03-3.12 7.03-9.8v-22.1h8.61v21.53c0 11.78-5.95 17.28-15.92 17.28s-15.3-5.21-15.3-17.39v-21.42zm30.03 0h8.67v30.93h15.18v7.25h-23.85v-38.19Zm54.84 37.11c-1.59.79-5.16 1.7-9.8 1.7-13.2 0-20-8.27-20-19.15 0-13.03 9.29-20.23 20.85-20.23 4.48 0 7.88.85 9.41 1.64l-1.76 6.86c-1.76-.74-4.19-1.42-7.25-1.42-6.86 0-12.18 4.14-12.18 12.63 0 7.65 4.53 12.46 12.24 12.46 2.61 0 5.5-.57 7.2-1.25l1.3 6.74Zm14.33-37.11v14.67h14.22v-14.67h8.61v38.19h-8.61v-15.98h-14.22v15.98h-8.67v-38.19zm65.32 19.03c0 12.81-8.44 19.77-18.7 19.77-10.99 0-18.02-7.99-18.02-19.43s7.54-20 18.75-20 17.96 8.5 17.96 19.66Zm-27.59.11c0 7.14 3.29 12.81 9.23 12.81s9.24-5.89 9.24-12.81c0-6.46-2.83-12.92-9.18-12.92s-9.29 5.84-9.29 12.92m38.98 19.04-9.01-38.19h9.24l2.89 15.69c.85 4.59 1.64 9.52 2.27 13.37h.11c.57-4.14 1.53-8.73 2.49-13.43l3.23-15.64h9.18l3.06 16.09c.85 4.48 1.47 8.56 2.04 12.81h.11c.57-4.25 1.42-8.72 2.21-13.26l3.12-15.64h8.78l-9.86 38.19h-9.35l-3.23-16.43c-.74-3.8-1.36-7.42-1.81-11.78h-.11c-.68 4.31-1.3 7.93-2.21 11.78l-3.63 16.43h-9.52Zm44.18-38.18h8.56v16.88h.17c.85-1.47 1.76-2.83 2.61-4.19l8.67-12.69h10.6l-12.64 16.26 13.31 21.93h-10.09l-9.35-16.49-3.29 4.02v12.46h-8.56v-38.19Zm74.28 37.11c-1.59.79-5.16 1.7-9.8 1.7-13.2 0-20-8.27-20-19.15 0-13.03 9.29-20.23 20.85-20.23 4.48 0 7.88.85 9.4 1.64l-1.76 6.86c-1.76-.74-4.19-1.42-7.25-1.42-6.86 0-12.18 4.14-12.18 12.63 0 7.65 4.53 12.46 12.24 12.46 2.61 0 5.5-.57 7.2-1.25l1.3 6.74Zm15.12-8.73-2.72 9.8h-8.95l11.67-38.19h11.33l11.84 38.19h-9.29l-2.95-9.8zm9.69-6.46-2.38-8.1c-.68-2.27-1.36-5.1-1.93-7.37h-.11c-.57 2.27-1.13 5.16-1.76 7.37l-2.27 8.1h8.44Zm50.87 1.64c-.17-4.59-.34-10.14-.34-15.69h-.17c-1.19 4.87-2.83 10.43-4.25 14.84l-4.65 14.84h-6.8l-4.02-14.73c-1.25-4.53-2.55-9.97-3.46-14.96h-.11c-.23 5.16-.4 11.05-.68 15.81l-.68 14.5h-7.99l2.44-38.19h11.5l3.74 12.75c1.25 4.36 2.38 9.35 3.23 13.83h.17c1.08-4.42 2.32-9.63 3.63-13.88l4.08-12.69h11.27l2.1 38.19h-8.44zm15.63-23.06c2.66-.45 6.52-.79 11.67-.79s9.12 1.02 11.67 3.06c2.44 1.93 4.08 5.1 4.08 8.84s-1.25 6.97-3.51 9.06c-2.95 2.78-7.31 4.08-12.35 4.08-1.19 0-2.21-.11-3-.17v13.6h-8.56zm8.56 17.4c.62.11 1.64.17 2.89.17 4.59 0 7.42-2.32 7.42-6.18 0-3.57-2.38-5.67-6.86-5.67-1.7 0-2.83.17-3.46.28v11.39Zm32.97-17.9v22.1c0 6.52 2.49 9.8 6.91 9.8s7.03-3.12 7.03-9.8v-22.1h8.61v21.53c0 11.78-5.95 17.28-15.92 17.28s-15.3-5.21-15.3-17.39v-21.42zm30.31 29.29c2.32 1.19 5.89 2.38 9.58 2.38 3.97 0 6.06-1.64 6.06-4.13s-1.81-3.74-6.4-5.38c-6.35-2.21-10.48-5.72-10.48-11.27 0-6.52 5.44-11.45 14.45-11.45 4.31 0 7.48.85 9.75 1.87l-1.93 6.97c-1.53-.74-4.25-1.81-7.99-1.81s-5.55 1.7-5.55 3.68c0 2.44 2.15 3.51 7.08 5.38 6.74 2.49 9.91 6 9.91 11.39 0 6.4-4.93 11.9-15.41 11.9-4.36 0-8.67-1.19-10.82-2.38l1.76-7.14ZM309.45 146.2a146.3 146.3 0 0 0-4.66-23.52l15.45-6.4-12.93-31.21-15.46 6.4c-3.91-7.01-8.37-13.67-13.34-19.92l11.84-11.84-23.88-23.89-11.85 11.85c-6.25-4.97-12.91-9.43-19.92-13.34l6.4-15.45-31.21-12.93-6.4 15.44c-7.61-2.16-15.47-3.73-23.52-4.66V0h-33.78v16.74c-8.05.92-15.92 2.49-23.52 4.66l-6.4-15.44-31.21 12.93 6.4 15.45c-7.01 3.91-13.67 8.37-19.92 13.34L59.69 35.83 35.8 59.72l11.85 11.85c-4.97 6.25-9.43 12.91-13.34 19.92l-15.46-6.4L5.92 116.3l15.44 6.4c-2.16 7.61-3.73 15.46-4.66 23.52H0v33.79h64.8c-.04-.19-.07-.39-.11-.59-.55-2.64-1-5.32-1.34-8.03-.02-.17-.03-.35-.05-.52-.14-1.18-.27-2.37-.37-3.57a115 115 0 0 1-.33-6.28c.1-5.04.57-9.98 1.39-14.81.31-1.83.66-3.64 1.07-5.43a100 100 0 0 1 12.93-31.2c.98-1.56 2.01-3.1 3.07-4.6a101.1 101.1 0 0 1 28.49-26.97 99.7 99.7 0 0 1 31.2-12.93c1.79-.41 3.61-.77 5.43-1.08 5.49-.93 11.13-1.41 16.89-1.41s11.4.49 16.89 1.41q2.745.465 5.43 1.08a99.7 99.7 0 0 1 31.2 12.93 101.3 101.3 0 0 1 28.49 26.96c1.06 1.5 2.09 3.04 3.07 4.6 4.86 7.71 8.7 16.14 11.34 25.08.51 2.05.97 4.13 1.35 6.23a101 101 0 0 1 1.27 26.41c-.1 1.2-.23 2.39-.37 3.57-.02.17-.03.34-.05.51-.34 2.71-.79 5.39-1.34 8.03-.04.19-.07.39-.11.59h65.91V146.2h-16.74Z" class="cls-1"/><path d="M74.05 179.04a3.14 3.14 0 0 0-3.31.95h6.61a3.16 3.16 0 0 0-3.31-.95Zm175.95.95h4.77c-.57-.67-1.43-1.09-2.39-1.09s-1.81.42-2.39 1.09Zm-89.33 25.68h3.74v70.89h-3.74z" class="cls-1"/><path d="M106.57 276.27h110.56v4.26H106.57zm-28.42-94.19c0 1.76-1.43 3.18-3.18 3.18-.32 0-.63-.05-.92-.14a3.16 3.16 0 0 1-2.18-2.37c-.01-.05-.02-.09-.02-.14-.04-.17-.05-.35-.05-.53 0-.8.3-1.53.79-2.09.38-.44.89-.78 1.46-.95a3.16 3.16 0 0 1 3.31.95c.08.08.14.16.2.25.37.52.59 1.15.59 1.84" class="cls-1"/><path d="M73.13 178.78h52.44v6.59H73.13zm5.65 12.71h46.8v6.59h-46.8zm9.24 12.79h37.55v6.59H88.02zm17.29 12.87h19.01v6.59h-19.01z" class="cls-1"/><path d="M81.33 194.79c0 1.76-1.42 3.18-3.18 3.18s-3.18-1.42-3.18-3.18 1.42-3.18 3.18-3.18 3.18 1.42 3.18 3.18m9.87 12.79c0 1.75-1.42 3.18-3.18 3.18s-3.18-1.42-3.18-3.18 1.42-3.18 3.18-3.18 3.18 1.42 3.18 3.18" class="cls-1"/><circle cx="105.31" cy="220.44" r="3.18" class="cls-1"/><path d="M76.31 182.08c0 1.44-.96 2.65-2.26 3.04-.29.09-.6.14-.92.14-1.22 0-2.27-.68-2.81-1.69a3.1 3.1 0 0 1-.37-1.48c0-.8.29-1.53.79-2.09.57-.67 1.43-1.09 2.39-1.09.32 0 .63.05.92.14.58.17 1.09.51 1.47.95.23.26.41.55.55.87.16.38.24.79.24 1.22Zm-42.06 24.34c-.41 2.63-2.67 4.65-5.42 4.65-3.04 0-5.5-2.46-5.5-5.5s2.46-5.51 5.5-5.51c.84 0 1.62.2 2.34.54l7.26-3.85c-2.39-2.6-5.8-4.23-9.6-4.23-7.21 0-13.05 5.84-13.05 13.05s5.84 13.05 13.05 13.05 13.05-5.84 13.05-13.05c0-1.03-.13-2.04-.36-3z" class="cls-1"/><path d="m74.67 184.99-3.09-5.82-33.16 17.58c1.49 1.62 2.57 3.61 3.09 5.82l33.15-17.58Z" class="cls-1"/><path d="M34.34 205.57c0 .29-.04.57-.09.85l7.27-3.85c-.52-2.21-1.6-4.2-3.09-5.82l-7.26 3.85c1.87.88 3.17 2.77 3.17 4.97m165.61-26.79h52.44v6.59h-52.44zm0 12.71h46.8v6.59h-46.8zm0 12.79h37.55v6.59h-37.55zm1.25 12.87h19.01v6.59H201.2z" class="cls-1"/><path d="M244.2 194.79c0 1.76 1.42 3.18 3.18 3.18s3.18-1.42 3.18-3.18-1.42-3.18-3.18-3.18-3.18 1.42-3.18 3.18m-9.88 12.79c0 1.75 1.42 3.18 3.18 3.18s3.18-1.42 3.18-3.18-1.42-3.18-3.18-3.18-3.18 1.42-3.18 3.18" class="cls-1"/><circle cx="220.21" cy="220.44" r="3.18" class="cls-1"/><path d="M255.57 182.08c0 .34-.05.67-.16.98-.06.18-.13.35-.22.51a3.16 3.16 0 0 1-2.81 1.69c-1.76 0-3.18-1.42-3.18-3.18 0-.52.13-1.01.35-1.45.12-.23.26-.45.44-.64.57-.67 1.43-1.09 2.39-1.09s1.81.42 2.39 1.09c.49.56.79 1.29.79 2.09Z" class="cls-1"/><path d="m250.846 184.986 3.086-5.822 44.3 23.485-3.087 5.822zM52.55 230.85l28.74-33.93-5.03-4.26-28.74 33.93c2.02.97 3.75 2.44 5.03 4.26" class="cls-1"/><path d="M47.24 237.12c.09.4.15.8.15 1.23 0 3.04-2.46 5.5-5.5 5.5s-5.5-2.47-5.5-5.5 2.46-5.51 5.5-5.51c.11 0 .21.03.32.03l5.32-6.28c-1.71-.82-3.62-1.29-5.64-1.29-7.21 0-13.05 5.84-13.05 13.05s5.84 13.05 13.05 13.05 13.05-5.84 13.05-13.05c0-2.79-.89-5.38-2.38-7.5l-5.31 6.27Z" class="cls-1"/><path d="m47.24 237.12 5.31-6.27a13.06 13.06 0 0 0-5.03-4.26l-5.32 6.28c2.47.14 4.5 1.9 5.04 4.25m43.77-28.17-5.99-2.75-20.84 45.4c2.25.39 4.3 1.35 5.99 2.74L91 208.95Z" class="cls-1"/><path d="m70.18 254.34-3.44 7.49c.42.78.68 1.66.68 2.61 0 3.04-2.46 5.5-5.51 5.5s-5.5-2.46-5.5-5.5c0-2.64 1.86-4.85 4.35-5.38l3.42-7.46c-.74-.13-1.49-.21-2.27-.21-7.21 0-13.05 5.84-13.05 13.05s5.84 13.05 13.05 13.05 13.05-5.84 13.05-13.05c0-4.07-1.87-7.71-4.79-10.1Z" class="cls-1"/><path d="M61.92 258.94c2.09 0 3.89 1.18 4.82 2.9l3.44-7.49a12.9 12.9 0 0 0-5.99-2.74l-3.42 7.46c.37-.08.76-.13 1.16-.13Zm26.1 12.39c-7.21 0-13.05 5.84-13.05 13.05s5.84 13.05 13.05 13.05 13.05-5.84 13.05-13.05-5.84-13.05-13.05-13.05m0 18.55c-3.04 0-5.5-2.46-5.5-5.5s2.46-5.51 5.5-5.51 5.5 2.46 5.5 5.51-2.46 5.5-5.5 5.5m149.48-18.12c-7.21 0-13.05 5.84-13.05 13.05s5.84 13.05 13.05 13.05 13.05-5.84 13.05-13.05-5.84-13.05-13.05-13.05m0 17.65c-3.04 0-5.5-2.46-5.5-5.5s2.46-5.51 5.5-5.51 5.5 2.46 5.5 5.51-2.46 5.5-5.5 5.5m3-83.21-5.99 2.75 20.56 44.81c1.66-1.44 3.68-2.47 5.91-2.93l-20.48-44.62Zm23.11 44.36c-.9 0-1.78.09-2.63.27l3.38 7.36c2.68.37 4.75 2.65 4.75 5.43 0 3.04-2.46 5.5-5.5 5.5s-5.5-2.46-5.5-5.5c0-.79.17-1.54.48-2.22l-3.5-7.63a13 13 0 0 0-4.51 9.85c0 7.21 5.84 13.05 13.05 13.05s13.05-5.84 13.05-13.05-5.84-13.05-13.05-13.05Z" class="cls-1"/><path d="M263.6 258.11c.26 0 .5.04.75.08l-3.38-7.36c-2.23.46-4.25 1.49-5.91 2.93l3.5 7.63a5.5 5.5 0 0 1 5.03-3.28Zm20.04-32.81c-7.21 0-13.05 5.84-13.05 13.05s5.84 13.05 13.05 13.05 13.05-5.84 13.05-13.05-5.84-13.05-13.05-13.05m0 18.55c-3.04 0-5.5-2.47-5.5-5.5s2.46-5.51 5.5-5.51 5.51 2.46 5.51 5.51-2.47 5.5-5.51 5.5m18.01-49.32c-7.21 0-13.05 5.84-13.05 13.05s5.84 13.05 13.05 13.05 13.05-5.84 13.05-13.05-5.84-13.05-13.05-13.05m0 18.55c-3.04 0-5.5-2.46-5.5-5.5s2.46-5.51 5.5-5.51 5.5 2.46 5.5 5.51-2.47 5.5-5.5 5.5M88.02 278.87c1.76 0 3.32.84 4.32 2.14l16.15-59.71-6.36-1.72-16.14 59.69c.63-.25 1.31-.4 2.03-.4m149.48-.47c.67 0 1.3.14 1.89.35l-16-59.17-6.36 1.72 16.05 59.35c1-1.36 2.6-2.25 4.42-2.25" class="cls-1"/><path d="m283.32 232.87-34.06-40.22-5.03 4.26 34.05 40.2a5.5 5.5 0 0 1 5.04-4.25ZM169.74 88.27c0 3.97-3.22 7.2-7.2 7.2s-7.2-3.22-7.2-7.2h-14.95v141.35h44.3V88.27z" class="cls-1"/><path d="M164.42 102.22v-1.41h-4.82v8.85h4.82v-1.41h-3.29v-2.46h3.14v-1.38h-3.14v-2.2h3.29Zm.12 17.71c-.11-.27-.26-.49-.45-.69-.18-.2-.4-.36-.63-.5-.23-.13-.48-.25-.72-.36h-.03c-.21-.09-.41-.17-.6-.25-.03-.01-.06-.02-.09-.04-.23-.09-.45-.19-.63-.3a1.9 1.9 0 0 1-.45-.36.76.76 0 0 1-.17-.48c0-.15.03-.28.08-.41.05-.12.14-.23.26-.31.05-.04.11-.07.18-.1q.12-.06.27-.09c.18-.05.41-.07.67-.07.15 0 .31 0 .48.03.17.02.33.05.5.08.14.03.28.06.41.1.02 0 .04.01.07.02.15.04.3.09.43.15v-1.53c-.13-.04-.27-.07-.43-.11-.16-.03-.32-.06-.49-.08q-.255-.045-.51-.06c-.17-.02-.34-.02-.5-.02-.55 0-1.01.07-1.39.21-.02 0-.05.02-.07.03-.35.13-.64.31-.87.53q-.36.345-.54.81c-.11.31-.17.64-.17.99 0 .38.06.71.17.98s.26.5.44.69c.18.2.4.36.63.49s.47.25.72.35c.24.1.48.2.72.29.08.03.16.06.23.09.15.06.28.13.4.21.18.11.33.25.44.39a.9.9 0 0 1 .17.55c0 .16-.03.3-.09.43s-.15.24-.28.34c-.13.09-.29.17-.49.22-.2.06-.44.08-.73.08-.11 0-.23 0-.35-.01-.08 0-.17-.02-.24-.03-.21-.03-.41-.07-.62-.11-.21-.05-.41-.1-.62-.16-.2-.06-.4-.13-.59-.2v1.65c.39.13.77.22 1.16.27.1.01.2.03.3.04.3.03.61.04.92.04.48 0 .91-.06 1.31-.17s.74-.28 1.04-.52c.09-.07.17-.15.25-.23.17-.19.32-.4.43-.65q.24-.54.24-1.26c0-.36-.06-.67-.17-.94Zm-5.59 8.63v1.39h2.19v7.47h1.54v-7.47h2.19v-1.39h-5.93Zm6.07 17.66c0-.12-.01-.23-.02-.34-.04-.4-.1-.75-.19-1.07q-.12-.45-.33-.81c-.1-.19-.22-.37-.36-.53-.31-.35-.69-.61-1.15-.78s-1-.25-1.61-.25h-2.37v8.85h2.04c.71 0 1.31-.11 1.82-.32.51-.22.92-.52 1.25-.92.32-.4.56-.87.72-1.43s.23-1.18.23-1.87c0-.18 0-.36-.01-.53Zm-2.18 2.94c-.38.49-.95.73-1.69.73h-.66v-6.06h.76c.41 0 .76.07 1.04.2s.49.32.66.59c.09.15.17.32.24.5.05.14.08.29.11.45.04.2.07.41.08.64.01.2.02.41.02.64 0 1.04-.19 1.81-.58 2.3Zm.09 14.46c-.06-.15-.13-.28-.23-.39-.04-.04-.08-.08-.13-.12-.07-.06-.14-.1-.22-.14-.14-.06-.28-.1-.44-.1s-.3.03-.43.1c-.08.04-.16.08-.22.14-.05.03-.09.08-.13.12q-.15.165-.24.39c-.06.15-.08.31-.08.48s.03.33.08.48q.09.225.24.39c.1.11.22.2.35.26.13.07.27.09.43.09s.3-.03.44-.09c.13-.06.25-.15.35-.26s.17-.24.23-.39q.09-.225.09-.48c0-.255-.03-.32-.09-.48m0-4.66c-.06-.15-.13-.28-.23-.39s-.22-.2-.35-.26c-.14-.07-.28-.09-.44-.09s-.3.03-.43.09c-.14.06-.25.15-.35.26q-.15.165-.24.39c-.06.15-.08.31-.08.48s.03.33.08.48c.06.15.14.28.24.38.1.11.22.19.35.26.13.06.27.09.43.09s.3-.03.44-.09c.13-.07.25-.15.35-.26s.17-.24.23-.38q.09-.225.09-.48c0-.255-.03-.32-.09-.48m-1.61 18.56 1.16-1.23c.31-.32.58-.63.82-.91q.36-.435.6-.87c.17-.29.29-.59.38-.89.08-.31.13-.64.13-.99 0-.42-.06-.8-.19-1.13-.12-.32-.3-.59-.53-.81s-.5-.38-.82-.49-.67-.17-1.06-.17c-.51 0-.98.11-1.41.32-.44.22-.83.5-1.17.86l.79 1.12c.25-.25.5-.45.77-.61.27-.15.57-.23.88-.23.18 0 .35.03.49.1s.26.16.35.26c.09.11.16.24.22.4.05.15.07.31.07.48 0 .2-.02.4-.06.59-.03.19-.11.4-.23.62a5 5 0 0 1-.5.76c-.21.28-.5.62-.85 1.02l-1.9 2.09v1.22h5.44v-1.53h-3.38Zm3.49 8.86c-.13-.48-.29-.89-.5-1.22-.04-.07-.08-.13-.12-.19-.27-.36-.59-.63-.96-.8a2.9 2.9 0 0 0-1.22-.26c-.51 0-.96.1-1.36.31-.2.1-.39.24-.56.39q-.255.225-.45.51c-.27.39-.49.88-.63 1.45-.15.58-.22 1.22-.22 1.96s.07 1.4.2 1.95c0 .04.02.08.03.11.15.57.36 1.05.63 1.41q.405.555.96.81c.37.17.78.26 1.22.26.51 0 .97-.1 1.36-.31s.73-.51 1.01-.9c.28-.4.49-.88.63-1.46.07-.28.12-.57.16-.88.04-.33.06-.69.06-1.07 0-.8-.08-1.49-.23-2.06Zm-4.5 2.58v-.49c0-.55.04-1.03.12-1.43.08-.41.2-.74.34-1a1.6 1.6 0 0 1 .52-.59c.2-.13.41-.19.64-.19.32 0 .6.1.83.32.18.17.33.39.46.69.04.1.08.2.11.31l-.71.56-1.34 1.07-.96.76Zm3.22-.7v.24c0 .55-.04 1.02-.12 1.43-.08.4-.19.74-.34 1s-.32.46-.52.59-.41.2-.64.2c-.32 0-.59-.11-.82-.32-.24-.21-.42-.54-.56-.97l2.98-2.38v.21Zm1.45 12.93c-.04-.34-.09-.65-.17-.93-.15-.57-.36-1.05-.63-1.41-.27-.37-.59-.63-.96-.81-.37-.17-.78-.25-1.22-.25-.51 0-.96.1-1.36.31s-.74.51-1.01.9c-.13.18-.24.38-.34.6-.12.26-.22.54-.29.85-.15.57-.22 1.22-.22 1.95 0 .8.07 1.49.23 2.06q.225.855.63 1.41c.12.17.25.31.4.43.17.16.36.28.56.38.37.17.78.25 1.22.25.17 0 .34-.01.5-.03.11-.02.21-.04.31-.06.2-.06.38-.12.55-.21.22-.11.41-.25.59-.42.15-.14.29-.3.41-.48.28-.4.49-.88.63-1.46q.21-.855.21-1.95c0-.41-.02-.79-.06-1.13Zm-1.45.96v.23c0 .55-.04 1.02-.12 1.43-.08.4-.19.74-.34 1-.15.27-.32.46-.52.59s-.41.2-.64.2h-.13c-.26-.03-.49-.13-.69-.32-.24-.21-.42-.54-.56-.97l.54-.43 2.45-1.95v.23Zm-3.11-1.22c.08-.4.2-.74.34-1s.32-.47.51-.59c.2-.13.41-.19.64-.19.32 0 .6.11.83.32.24.22.42.55.56.99l-2.75 2.2-.25.2v-.81c0-.42.05-.8.11-1.11Zm2.55 18.26v-7.44h-1.26l-1.46.85-.21.12-.88.51.38 1.06.11.29.39-.24 1.39-.85v5.69h-2.04v1.47h5.33v-1.47h-1.76Z" style="fill:#231f20"/><path d="M197.01 95.46c0 2.5-1.95 4.55-4.42 4.7h-.29c-2.6 0-4.71-2.11-4.71-4.71s2.1-4.71 4.71-4.71h.29c2.46.15 4.42 2.2 4.42 4.7Z" class="cls-1"/><path d="M187.6 90.76h5v9.41h-5zm9.41 17.41c0 2.5-1.95 4.55-4.42 4.7h-.29c-.83 0-1.61-.22-2.29-.6a4.69 4.69 0 0 1-2.41-4.11c0-2.6 2.1-4.71 4.71-4.71h.29a4.707 4.707 0 0 1 4.42 4.69Z" class="cls-1"/><path d="M187.6 103.47h5v9.41h-5zm9.41 29.03c0 2.5-1.95 4.55-4.42 4.7h-.49a4.71 4.71 0 0 1-4.06-2.72c-.29-.6-.44-1.28-.44-1.99 0-2.6 2.1-4.71 4.71-4.71h.29c1.12.07 2.12.52 2.89 1.23.55.5.98 1.14 1.24 1.85.19.5.29 1.04.29 1.61Z" class="cls-1"/><path d="M187.6 127.79h5v9.41h-5zm9.41-7.36c0 2.5-1.95 4.55-4.42 4.7h-.29c-2.6 0-4.71-2.11-4.71-4.71s2.1-4.71 4.71-4.71h.29c2.46.15 4.42 2.2 4.42 4.7Z" class="cls-1"/><path d="M187.6 115.72h5v9.41h-5zm9.41 28.85a4.71 4.71 0 0 1-4.41 4.7h-.29a4.71 4.71 0 0 1-4.42-3.08 4.72 4.72 0 0 1 3.02-6.13c.44-.14.91-.21 1.4-.21h.29c2.46.15 4.42 2.2 4.42 4.7Z" class="cls-1"/><path d="M187.6 139.87h5v9.41h-5zm9.41 16.94c0 .67-.14 1.31-.4 1.89a4.7 4.7 0 0 1-4.02 2.81h-.29c-1.06 0-2.03-.35-2.81-.94a4.67 4.67 0 0 1-1.89-3.77c0-.6.11-1.18.32-1.71a4.7 4.7 0 0 1 4.38-2.99h.29c1.43.09 2.68.81 3.48 1.88.59.79.94 1.76.94 2.82Z" class="cls-1"/><path d="M187.6 152.11h5v9.41h-5zm9.41 17.26c0 1.06-.35 2.03-.94 2.82a4.7 4.7 0 0 1-3.47 1.88h-.29a4.707 4.707 0 0 1-2.83-8.47c.79-.59 1.76-.94 2.82-.94h.29c1.81.11 3.34 1.24 4.02 2.82.25.57.39 1.21.39 1.88Z" class="cls-1"/><path d="M187.6 164.66h5v9.41h-5zm9.41 17.42c0 2.6-2.11 4.71-4.71 4.71s-4.71-2.11-4.71-4.71 2.11-4.71 4.71-4.71 4.71 2.11 4.71 4.71" class="cls-1"/><path d="M187.6 177.37h5v9.41h-5zm9.41 17.42c0 2.6-2.11 4.71-4.71 4.71s-4.71-2.11-4.71-4.71 2.11-4.71 4.71-4.71 4.71 2.11 4.71 4.71" class="cls-1"/><path d="M187.6 190.08h5v9.41h-5zm9.41 17.5c0 2.6-2.11 4.71-4.71 4.71s-4.71-2.11-4.71-4.71 2.11-4.71 4.71-4.71 4.71 2.11 4.71 4.71" class="cls-1"/><path d="M187.6 202.87h5v9.42h-5zm9.41 17.57c0 2.6-2.11 4.71-4.71 4.71s-4.71-2.11-4.71-4.71 2.11-4.71 4.71-4.71 4.71 2.11 4.71 4.71" class="cls-1"/><path d="M187.6 215.73h5v9.41h-5zM137.64 95.46c0 2.6-2.11 4.71-4.71 4.71h-.29c-2.46-.15-4.42-2.2-4.42-4.7s1.95-4.55 4.42-4.7h.29c2.6 0 4.71 2.11 4.71 4.71Z" class="cls-1"/><path d="M132.64 90.76h5v9.41h-5zm5 17.41c0 1.52-.72 2.88-1.85 3.74-.79.61-1.78.97-2.86.97h-.29a4.716 4.716 0 0 1-4.42-4.7c0-1.08.36-2.07.97-2.86a4.72 4.72 0 0 1 3.45-1.84h.29c2.6 0 4.71 2.11 4.71 4.71Z" class="cls-1"/><path d="M132.64 103.47h5v9.41h-5zm5 29.03c0 .58-.1 1.14-.3 1.65a4.69 4.69 0 0 1-3.31 2.92c-.35.09-.72.13-1.1.13h-.29a4.716 4.716 0 0 1-4-6.65c.39-.86 1.03-1.58 1.83-2.06.64-.4 1.37-.64 2.17-.69h.29c2.6 0 4.71 2.1 4.71 4.71Z" class="cls-1"/><path d="M132.64 127.79h5v9.41h-5zm5-7.36c0 2.6-2.11 4.71-4.71 4.71h-.29c-2.46-.15-4.42-2.2-4.42-4.7s1.95-4.55 4.42-4.7h.29c2.6 0 4.71 2.11 4.71 4.71Z" class="cls-1"/><path d="M132.64 115.72h5v9.41h-5zm5 28.85c0 .33-.03.66-.1.97a4.7 4.7 0 0 1-4.6 3.74h-.29c-1.9-.12-3.5-1.36-4.12-3.07a4.6 4.6 0 0 1-.29-1.63c0-2.5 1.95-4.55 4.42-4.7h.29c.95 0 1.84.28 2.57.77 1.28.84 2.13 2.29 2.13 3.94Z" class="cls-1"/><path d="M132.64 139.87h5v9.41h-5zm5 16.94c0 1.3-.53 2.48-1.38 3.33a4.67 4.67 0 0 1-3.32 1.37h-.29a4.67 4.67 0 0 1-3.86-2.49 4.71 4.71 0 0 1 .82-5.53c.79-.79 1.85-1.3 3.04-1.37h.29c2.12 0 3.91 1.4 4.5 3.33.14.43.21.89.21 1.37Z" class="cls-1"/><path d="M132.64 152.11h5v9.41h-5zm5 17.26c0 .48-.07.95-.21 1.38a4.71 4.71 0 0 1-4.5 3.32h-.29a4.67 4.67 0 0 1-3.04-1.37 4.7 4.7 0 0 1-.83-5.53 4.67 4.67 0 0 1 3.86-2.49h.29c1.3 0 2.48.53 3.33 1.38s1.38 2.03 1.38 3.33Z" class="cls-1"/><path d="M132.64 164.66h5v9.41h-5zm-4.41 17.42c0 2.6 2.11 4.71 4.71 4.71s4.71-2.11 4.71-4.71-2.11-4.71-4.71-4.71-4.71 2.11-4.71 4.71" class="cls-1"/><path d="M132.64 177.37h5v9.41h-5zm-4.41 17.42c0 2.6 2.11 4.71 4.71 4.71s4.71-2.11 4.71-4.71-2.11-4.71-4.71-4.71-4.71 2.11-4.71 4.71" class="cls-1"/><path d="M132.64 190.08h5v9.41h-5zm-4.41 17.5c0 2.6 2.11 4.71 4.71 4.71s4.71-2.11 4.71-4.71-2.11-4.71-4.71-4.71-4.71 2.11-4.71 4.71" class="cls-1"/><path d="M132.64 202.87h5v9.42h-5zm-4.41 17.57c0 2.6 2.11 4.71 4.71 4.71s4.71-2.11 4.71-4.71-2.11-4.71-4.71-4.71-4.71 2.11-4.71 4.71" class="cls-1"/><path d="M132.64 215.73h5v9.41h-5zm411.13-28.25-12.24-38.19h9.46l4.65 16.15c1.3 4.53 2.49 8.9 3.4 13.65h.17c.96-4.59 2.15-9.12 3.46-13.48l4.87-16.32h9.18l-12.86 38.19z" class="cls-1"/></g></svg>